<svg width="22" height="22" viewBox="0 0 22 22" fill="none" xmlns="http://www.w3.org/2000/svg">
<path d="M3.08624 11.6896C2.89988 11.4232 2.79993 11.1059 2.79993 10.7807C2.79993 10.4556 2.89988 10.1383 3.08624 9.87186C4.29477 8.16087 7.27037 4.6344 11.2509 4.6344C15.2314 4.6344 18.207 8.16087 19.4156 9.87186C19.6019 10.1383 19.7019 10.4556 19.7019 10.7807C19.7019 11.1059 19.6019 11.4232 19.4156 11.6896C18.207 13.4006 15.2314 16.9271 11.2509 16.9271C7.27037 16.9271 4.29477 13.4006 3.08624 11.6896Z" stroke="#171A1F" stroke-width="1.84391" stroke-miterlimit="10" stroke-linecap="square"/>
<path d="M11.2506 13.8539C12.9479 13.8539 14.3238 12.478 14.3238 10.7807C14.3238 9.08343 12.9479 7.70752 11.2506 7.70752C9.55334 7.70752 8.17743 9.08343 8.17743 10.7807C8.17743 12.478 9.55334 13.8539 11.2506 13.8539Z" stroke="#171A1F" stroke-width="1.84391" stroke-miterlimit="10" stroke-linecap="square"/>
</svg>
