<svg width="23" height="22" viewBox="0 0 23 22" fill="none" xmlns="http://www.w3.org/2000/svg">
<path d="M17.0616 10.0125L6.30548 10.0125C5.45684 10.0125 4.76889 10.7004 4.76889 11.549L4.76889 17.6954C4.76889 18.544 5.45684 19.232 6.30548 19.232L17.0616 19.232C17.9102 19.232 18.5982 18.544 18.5982 17.6954V11.549C18.5982 10.7004 17.9102 10.0125 17.0616 10.0125Z" stroke="#171A1F" stroke-width="1.84391" stroke-miterlimit="10" stroke-linecap="square"/>
<path d="M11.6829 16.1588C12.5316 16.1588 13.2195 15.4709 13.2195 14.6222C13.2195 13.7736 12.5316 13.0856 11.6829 13.0856C10.8343 13.0856 10.1464 13.7736 10.1464 14.6222C10.1464 15.4709 10.8343 16.1588 11.6829 16.1588Z" stroke="#171A1F" stroke-width="1.84391" stroke-miterlimit="10" stroke-linecap="square"/>
<path d="M15.526 6.9393V6.171C15.536 5.16242 15.145 4.19113 14.4391 3.47075C13.7331 2.75037 12.7699 2.33987 11.7613 2.32953H11.6845C10.6759 2.3195 9.70462 2.71046 8.98424 3.41643C8.26385 4.1224 7.85336 5.08559 7.84302 6.09417V6.9393" stroke="#171A1F" stroke-width="1.84391" stroke-miterlimit="10" stroke-linecap="square"/>
</svg>
